<svg xmlns="http://www.w3.org/2000/svg" xmlns:xlink="http://www.w3.org/1999/xlink" width="97.967" height="16.334" viewBox="0 0 97.967 16.334"><defs><clipPath id="a"><rect width="97.967" height="16.334" transform="translate(0 0)" fill="none"/></clipPath></defs><g transform="translate(0 0)"><g clip-path="url(#a)"><path d="M4.332,8.327a2.939,2.939,0,0,1-.521,1.829,1.667,1.667,0,0,1-1.4.684,1.677,1.677,0,0,1-1.3-.534V12.65H0V5.8H1.024l.045.5A1.634,1.634,0,0,1,2.4,5.713a1.687,1.687,0,0,1,1.419.674,3.019,3.019,0,0,1,.514,1.871Zm-1.106-.1a2.063,2.063,0,0,0-.294-1.174.959.959,0,0,0-.844-.435,1.021,1.021,0,0,0-.977.562V9.378a1.03,1.03,0,0,0,.986.576.955.955,0,0,0,.83-.428,2.267,2.267,0,0,0,.3-1.3" fill="#6f6f6f"/><path d="M5.063,8.231a2.927,2.927,0,0,1,.288-1.309,2.11,2.11,0,0,1,.809-.9,2.283,2.283,0,0,1,1.2-.313,2.163,2.163,0,0,1,1.625.644,2.536,2.536,0,0,1,.674,1.71l0,.26a2.942,2.942,0,0,1-.281,1.308,2.074,2.074,0,0,1-.8.89,2.285,2.285,0,0,1-1.209.316,2.144,2.144,0,0,1-1.674-.7,2.664,2.664,0,0,1-.629-1.857Zm1.111.1a1.989,1.989,0,0,0,.315,1.2,1.027,1.027,0,0,0,.877.433,1.015,1.015,0,0,0,.876-.44,2.2,2.2,0,0,0,.312-1.284,1.967,1.967,0,0,0-.322-1.188,1.085,1.085,0,0,0-1.738-.007,2.156,2.156,0,0,0-.32,1.291" fill="#6f6f6f"/><path d="M14.942,9.218,15.728,5.8h1.083l-1.348,4.944h-.914l-1.06-3.395-1.042,3.395h-.914L10.181,5.8h1.082l.8,3.378L13.078,5.8h.836Z" fill="#6f6f6f"/><path d="M19.732,10.84a2.3,2.3,0,0,1-1.712-.664A2.418,2.418,0,0,1,17.364,8.4V8.267a2.976,2.976,0,0,1,.286-1.323,2.179,2.179,0,0,1,.8-.907A2.122,2.122,0,0,1,19.6,5.713a1.941,1.941,0,0,1,1.56.644,2.728,2.728,0,0,1,.551,1.824v.447H18.484a1.478,1.478,0,0,0,.409.969,1.231,1.231,0,0,0,.9.357,1.5,1.5,0,0,0,1.242-.618l.6.572a2,2,0,0,1-.792.688,2.485,2.485,0,0,1-1.113.244M19.6,6.6a.936.936,0,0,0-.738.32,1.653,1.653,0,0,0-.358.891h2.115V7.733a1.349,1.349,0,0,0-.3-.844A.932.932,0,0,0,19.6,6.6" fill="#6f6f6f"/><path d="M25.165,6.819a2.785,2.785,0,0,0-.452-.037,1.018,1.018,0,0,0-1.028.585v3.382H22.574V5.8h1.061l.027.552a1.251,1.251,0,0,1,1.115-.644,1.036,1.036,0,0,1,.393.064Z" fill="#6f6f6f"/><path d="M27.958,10.84a2.3,2.3,0,0,1-1.712-.664A2.418,2.418,0,0,1,25.59,8.4V8.267a2.976,2.976,0,0,1,.286-1.323,2.179,2.179,0,0,1,.8-.907,2.122,2.122,0,0,1,1.152-.324,1.941,1.941,0,0,1,1.56.644,2.728,2.728,0,0,1,.551,1.824v.447H26.71a1.478,1.478,0,0,0,.409.969,1.231,1.231,0,0,0,.9.357,1.5,1.5,0,0,0,1.242-.618l.6.572a2,2,0,0,1-.792.688,2.485,2.485,0,0,1-1.113.244M27.825,6.6a.936.936,0,0,0-.738.32,1.653,1.653,0,0,0-.358.891h2.115V7.733a1.349,1.349,0,0,0-.3-.844.932.932,0,0,0-.722-.285" fill="#6f6f6f"/><path d="M30.594,8.24a2.943,2.943,0,0,1,.53-1.835,1.7,1.7,0,0,1,1.42-.692,1.615,1.615,0,0,1,1.271.548V3.73h1.11v7.019H33.92l-.055-.512a1.637,1.637,0,0,1-1.33.6,1.688,1.688,0,0,1-1.405-.7,3.04,3.04,0,0,1-.536-1.9m1.111.1a2.059,2.059,0,0,0,.289,1.176.939.939,0,0,0,.825.423,1.049,1.049,0,0,0,1-.608V7.216a1.032,1.032,0,0,0-.987-.594A.946.946,0,0,0,32,7.049,2.288,2.288,0,0,0,31.7,8.336" fill="#6f6f6f"/><path d="M42.754,8.327a2.975,2.975,0,0,1-.514,1.832,1.676,1.676,0,0,1-1.415.681,1.614,1.614,0,0,1-1.352-.626l-.055.535H38.413V3.73h1.11V6.28a1.607,1.607,0,0,1,1.293-.567,1.7,1.7,0,0,1,1.422.672,3.017,3.017,0,0,1,.516,1.878Zm-1.111-.1a2.1,2.1,0,0,0-.283-1.207.946.946,0,0,0-.822-.4,1.031,1.031,0,0,0-1.015.631V9.291a1.042,1.042,0,0,0,1.024.644.934.934,0,0,0,.8-.389,2.027,2.027,0,0,0,.292-1.174Z" fill="#6f6f6f"/><path d="M45.363,9.159,46.368,5.8h1.184L45.587,11.5a1.6,1.6,0,0,1-1.535,1.248,2.025,2.025,0,0,1-.535-.083V11.8l.21.014a1.081,1.081,0,0,0,.633-.153,1.009,1.009,0,0,0,.336-.514l.16-.424L43.119,5.8h1.2Z" fill="#6f6f6f"/><path d="M70.872,8.313a7.579,7.579,0,0,0-.1-1.224H64.676V9.521h3.489a3,3,0,0,1-1.294,1.93v1.618h2.081a6.326,6.326,0,0,0,1.92-4.756" fill="#3169b2"/><path d="M64.676,14.638a6.162,6.162,0,0,0,4.276-1.569l-2.081-1.618a3.907,3.907,0,0,1-2.195.626A3.864,3.864,0,0,1,61.047,9.4H58.9v1.666a6.46,6.46,0,0,0,5.775,3.57" fill="#3c993f"/><path d="M61.047,9.4a3.747,3.747,0,0,1-.205-1.235,3.914,3.914,0,0,1,.205-1.235V5.266H58.9a6.394,6.394,0,0,0,0,5.8Z" fill="#ffac00"/><path d="M64.676,4.257a3.513,3.513,0,0,1,2.481.971L69,3.383A6.187,6.187,0,0,0,64.676,1.7,6.461,6.461,0,0,0,58.9,5.265l2.146,1.667a3.864,3.864,0,0,1,3.629-2.675" fill="#e02b27"/><rect width="0.248" height="12.602" transform="translate(77.588 1.866)" fill="#6f6f6f"/><path d="M92.674,6.851l-.567,1.272c2.594,0,5.175-1.046,5.746-2.328s-1.077-2.329-3.67-2.329l-.452,1.015c1.3.009,2.122.538,1.834,1.185s-1.582,1.176-2.891,1.185m1.509-3.385c-2.561.018-5.093,1.053-5.657,2.32s1.045,2.3,3.589,2.319l-.884,1.986c-5.076,0-8.3-2.047-7.185-4.558S90.217.976,95.293.976Z" fill="#1e467b" fill-rule="evenodd"/><path d="M95.4.153H84.234a.219.219,0,1,0,0,.132H95.4Z" fill="#1a1818" fill-rule="evenodd"/><rect width="0.785" height="3.322" transform="translate(85.258 11.435)" fill="#1a1818"/><rect width="0.785" height="3.322" transform="translate(93.123 11.435)" fill="#1a1818"/><path d="M90.82,12.324a1.442,1.442,0,0,0-.429-.274,1.268,1.268,0,0,0-.471-.087,1.1,1.1,0,0,0-.82.308,1.281,1.281,0,0,0-.022,1.633,1.022,1.022,0,0,0,.775.3,1.419,1.419,0,0,0,.518-.094,1.454,1.454,0,0,0,.445-.28l-.005.7a1.807,1.807,0,0,1-.461.194,1.944,1.944,0,0,1-.506.064,1.736,1.736,0,0,1-1.263-.478,1.736,1.736,0,0,1,0-2.427,1.76,1.76,0,0,1,1.275-.477,2.266,2.266,0,0,1,.5.055,2.218,2.218,0,0,1,.482.17Z" fill="#1a1818" fill-rule="evenodd"/><path d="M95.209,15.9a.219.219,0,0,0-.208.153h-11.2v.132H95a.219.219,0,1,0,.208-.285" fill="#1a1818" fill-rule="evenodd"/></g></g></svg>